/vscmnt/brussel_pixiu_data/_data_brussel/112/vsc11236/PredSimResults/SUBJ11mtu3D/worker2.mot
version=1
nRows=8
nColumns=50
inDegrees=yes
endheader
                time	         pelvis_tilt	         pelvis_list	     pelvis_rotation	           pelvis_tx	           pelvis_ty	           pelvis_tz	       hip_flexion_r	     hip_adduction_r	      hip_rotation_r	        knee_angle_r	       ankle_angle_r	         mtp_angle_r	       hip_flexion_l	     hip_adduction_l	      hip_rotation_l	        knee_angle_l	       ankle_angle_l	         mtp_angle_l	    lumbar_extension	      lumbar_bending	     lumbar_rotation	 ercspn_r/activation	 intobl_r/activation	 extobl_r/activation	    abd_r/activation	    add_r/activation	hamstrings_r/activation	bifemsh_r/activation	glut_max_r/activation	iliopsoas_r/activation	rect_fem_r/activation	  vasti_r/activation	gastroc_r/activation	 soleus_r/activation	tib_ant_r/activation	 ercspn_l/activation	 intobl_l/activation	 extobl_l/activation	    abd_l/activation	    add_l/activation	hamstrings_l/activation	bifemsh_l/activation	glut_max_l/activation	iliopsoas_l/activation	rect_fem_l/activation	  vasti_l/activation	gastroc_l/activation	 soleus_l/activation	tib_ant_l/activation	
          0.00000000	        -19.96266950	        -11.08380844	         12.16161028	          0.00000000	          0.96168938	         -0.01320907	         49.91534271	         -7.20552645	         -5.30710285	        -20.60713269	        -28.76790025	          0.50233598	         10.01894070	        -18.24822128	         -4.22145163	        -16.11816005	        -23.72086147	         60.14568287	          0.40124131	          7.26472023	          1.52584750	          0.17602241	          0.15968788	          0.02580750	          0.01661336	          0.13794724	          0.04058784	          0.36339842	          0.11020154	          0.29150041	          0.06705150	          0.01382886	          0.25421069	          0.02198792	          0.03992059	          0.11453919	          0.01230829	          0.01002346	          0.10225509	          0.09444521	          0.07674888	          0.42942677	          0.06930363	          0.22197759	          0.09418779	          0.05553926	          0.25563113	          0.13646948	          0.10788225	
          0.01258633	        -19.98404290	        -10.75379867	         12.12632749	          0.01869702	          0.95757367	         -0.00963564	         50.77497700	         -7.25627924	         -7.42541636	        -24.43996767	        -26.37630061	          2.37172973	          8.80916530	        -18.38238648	         -5.14546091	        -16.05116188	        -24.19707476	         60.16021812	          0.88741363	          7.15943882	          1.33860511	          0.14608656	          0.23344574	          0.02133259	          0.01373268	          0.19201644	          0.04981241	          0.30039368	          0.10076708	          0.24095501	          0.05542503	          0.01143209	          0.25897641	          0.04850749	          0.03299973	          0.15739006	          0.01017424	          0.09782768	          0.08452740	          0.21041516	          0.06883014	          0.35497710	          0.05728658	          0.38752632	          0.07785820	          0.06078687	          0.25631089	          0.16077501	          0.08966524	
          0.02517266	        -19.99526420	        -10.45656574	         11.97272236	          0.03727270	          0.95357628	         -0.00612369	         51.44774509	         -7.46470784	         -9.25991069	        -28.28680541	        -24.46879247	          6.92025321	          7.90654268	        -18.56711836	         -6.10742390	        -16.53754019	        -24.71732295	         60.15604146	          1.32353601	          7.17759627	          1.19497154	          0.15127311	          0.25935889	          0.01763363	          0.01135153	          0.22805863	          0.06118409	          0.25155608	          0.11643939	          0.19917396	          0.04581454	          0.01000016	          0.21563612	          0.04009693	          0.02736447	          0.17589892	          0.01000482	          0.11163389	          0.11226764	          0.28808506	          0.06176895	          0.29342696	          0.04735328	          0.50368866	          0.06437666	          0.12815213	          0.25132721	          0.19832094	          0.07416696	
          0.03775899	        -19.99999855	        -10.12899502	         11.72749319	          0.05556957	          0.94990571	         -0.00256748	         51.80752811	         -7.61945236	        -10.65149114	        -31.42101071	        -23.36118436	         12.41251937	          7.35697437	        -18.75049777	         -7.18402609	        -17.62193814	        -25.30830550	         60.01860984	          1.67481122	          7.23104240	          1.04597182	          0.16692909	          0.21480898	          0.01457607	          0.01000019	          0.24167146	          0.07193519	          0.26232108	          0.22929902	          0.16463765	          0.03787051	          0.01000055	          0.19833315	          0.03314784	          0.03881214	          0.22552083	          0.01000011	          0.14196488	          0.17033606	          0.33814485	          0.05430470	          0.24254886	          0.03914239	          0.58493538	          0.08022154	          0.11886289	          0.23084132	          0.21431722	          0.06137723	
          0.05034532	        -19.99397620	         -9.75824128	         11.40006958	          0.07360112	          0.94663223	          0.00101259	         51.88071316	         -7.66769381	        -11.44575312	        -33.95723619	        -22.40213874	         17.97170418	          7.09905384	        -18.93449687	         -8.39976919	        -19.23579782	        -25.85071886	         59.46265501	          1.94936837	          7.29743502	          0.88665490	          0.18160928	          0.17758211	          0.01204887	          0.01000014	          0.24028343	          0.08026727	          0.26581337	          0.30777410	          0.13608987	          0.03130397	          0.01000009	          0.17139576	          0.02769802	          0.03281612	          0.24757618	          0.01001036	          0.18643522	          0.20705753	          0.36575036	          0.04761070	          0.20049314	          0.03235598	          0.63881500	          0.09199770	          0.09825848	          0.20490088	          0.21233444	          0.05200072	
          0.06293165	        -19.97453893	         -9.32084952	         10.99961843	          0.09134245	          0.94380322	          0.00458496	         51.75798977	         -7.63267137	        -11.73587250	        -36.05249344	        -21.34004212	         22.80953333	          7.07379209	        -19.10968956	         -9.73756264	        -21.30148738	        -26.28626131	         58.30701504	          2.14901150	          7.34180074	          0.71812188	          0.18910244	          0.14679520	          0.01000039	          0.01863025	          0.26299203	          0.09168970	          0.24678797	          0.38244668	          0.11249221	          0.02587608	          0.01000291	          0.14168195	          0.03955082	          0.03038658	          0.25241534	          0.01000010	          0.23153711	          0.18419103	          0.37093239	          0.04339703	          0.16573082	          0.02674800	          0.66979633	          0.10218077	          0.08122109	          0.18423809	          0.21738125	          0.06217293	
          0.07551798	        -19.93964662	         -8.79192291	         10.51968421	          0.10865929	          0.94155059	          0.00811537	         51.56860350	         -7.58823786	        -11.75807720	        -37.89333675	        -20.37299456	         27.03286042	          7.27822577	        -19.26596575	        -11.09319282	        -23.78617538	        -26.70335353	         56.55205064	          2.25497256	          7.33740142	          0.55840863	          0.21326224	          0.12134257	          0.01000138	          0.06233121	          0.29839660	          0.09423498	          0.21788410	          0.44454626	          0.09298633	          0.02138944	          0.01503152	          0.11711665	          0.03462206	          0.04881770	          0.28113655	          0.01000132	          0.25491797	          0.15225311	          0.36582083	          0.03876369	          0.13700266	          0.02214208	          0.68386707	          0.10251925	          0.06713762	          0.16800215	          0.21814842	          0.07228176	
          0.08810431	        -19.88468101	         -8.18256790	          9.95494507	          0.12551187	          0.94001728	          0.01156050	         51.34799406	         -7.52691531	        -11.53371268	        -39.52031946	        -19.71206172	         30.92919653	          7.70814380	        -19.41494238	        -12.29086910	        -26.63024020	        -27.18383251	         54.15457100	          2.27141968	          7.29922579	          0.42159657	          0.20296949	          0.10030235	          0.01001235	          0.09186763	          0.31865725	          0.09592655	          0.20424749	          0.46192442	          0.07686274	          0.01768099	          0.10232608	          0.09680994	          0.03204325	          0.08003558	          0.33435917	          0.01000104	          0.27097201	          0.12585279	          0.34712190	          0.03493753	          0.11329117	          0.01830569	          0.66751545	          0.08479349	          0.05549613	          0.15494262	          0.21141881	          0.07490631	
